<svg width="29.018860" height="32.000000" viewBox="0 0 29.0189 32" fill="none" xmlns="http://www.w3.org/2000/svg" xmlns:xlink="http://www.w3.org/1999/xlink">
	<desc>
			Created with Pixso.
	</desc>
	<defs/>
	<path id="Vector" d="M26.3754 0L2.64349 0C1.18353 0 0 1.18359 0 2.64258L0 29.3574C0 30.8164 1.18353 32 2.64349 32L26.3754 32C27.8353 32 29.0189 30.8164 29.0189 29.3574L29.0189 2.64258C29.0189 1.18359 27.8353 0 26.3754 0ZM8.56158 27.5371C8.56158 27.9395 8.23511 28.2676 7.83234 28.2676L4.14301 28.2676C3.74023 28.2676 3.41376 27.9395 3.41376 27.5371L3.41376 23.8477C3.41376 23.4453 3.74023 23.1191 4.14301 23.1191L7.83234 23.1191C8.23511 23.1191 8.56158 23.4453 8.56158 23.8477L8.56158 27.5371ZM8.56158 19.375C8.56158 19.7773 8.23511 20.1035 7.83234 20.1035L4.14301 20.1035C3.74023 20.1035 3.41376 19.7773 3.41376 19.375L3.41376 15.6855C3.41376 15.2832 3.74023 14.957 4.14301 14.957L7.83234 14.957C8.23511 14.957 8.56158 15.2832 8.56158 15.6855L8.56158 19.375ZM17.0833 27.5371C17.0833 27.9395 16.7568 28.2676 16.3541 28.2676L12.6648 28.2676C12.262 28.2676 11.9355 27.9395 11.9355 27.5371L11.9355 23.8477C11.9355 23.4453 12.262 23.1191 12.6648 23.1191L16.3541 23.1191C16.7569 23.1191 17.0833 23.4453 17.0833 23.8477L17.0833 27.5371ZM17.0833 19.375C17.0833 19.7773 16.7569 20.1035 16.3541 20.1035L12.6648 20.1035C12.262 20.1035 11.9355 19.7773 11.9355 19.375L11.9355 15.6855C11.9355 15.2832 12.262 14.957 12.6648 14.957L16.3541 14.957C16.7569 14.957 17.0833 15.2832 17.0833 15.6855L17.0833 19.375ZM25.6051 27.5371C25.6051 27.9395 25.2786 28.2676 24.8759 28.2676L21.1865 28.2676C20.7837 28.2676 20.4573 27.9395 20.4573 27.5371L20.4573 23.8477C20.4573 23.4453 20.7838 23.1191 21.1865 23.1191L24.8759 23.1191C25.2786 23.1191 25.6051 23.4453 25.6051 23.8477L25.6051 27.5371ZM25.6051 19.375C25.6051 19.7773 25.2786 20.1035 24.8759 20.1035L21.1865 20.1035C20.7837 20.1035 20.4573 19.7773 20.4573 19.375L20.4573 15.6855C20.4573 15.2832 20.7838 14.957 21.1865 14.957L24.8759 14.957C25.2786 14.957 25.6051 15.2832 25.6051 15.6855L25.6051 19.375ZM25.6051 10.541C25.6051 10.9434 25.2786 11.2695 24.8759 11.2695L4.14301 11.2695C3.74023 11.2695 3.41376 10.9434 3.41376 10.541L3.41376 3.92969C3.41376 3.52734 3.74023 3.19922 4.14301 3.19922L24.8759 3.19922C25.2786 3.19922 25.6051 3.52734 25.6051 3.92969L25.6051 10.541Z" fill="#FFFFFF" fill-opacity="1.000000" fill-rule="nonzero"/>
</svg>
