<svg width="24.000000" height="24.000000" viewBox="0 0 24 24" fill="none" xmlns="http://www.w3.org/2000/svg" xmlns:xlink="http://www.w3.org/1999/xlink">
	<desc>
			Created with Pixso.
	</desc>
	<defs>
		<clipPath id="clip5_2503">
			<rect id="Icon=phone" width="24.000000" height="24.000000" fill="white" fill-opacity="0"/>
		</clipPath>
	</defs>
	<rect id="Icon=phone" width="24.000000" height="24.000000" fill="#FFFFFF" fill-opacity="0"/>
	<g clip-path="url(#clip5_2503)">
		<path id="Vector" d="M22.3652 15.959C21.1461 14.9805 20.0278 14.5039 18.9464 14.5039C17.3819 14.5039 16.2555 15.5 15.2357 16.5195C15.1183 16.6367 14.9764 16.6914 14.7888 16.6914C13.9295 16.6914 12.4177 15.6152 10.2954 13.4922C7.79865 10.9961 6.85468 9.40625 7.48944 8.77148C9.21014 7.05273 9.74738 5.32812 7.11279 2.05078C6.16968 0.876953 5.24689 0.306641 4.29181 0.306641C3.00378 0.306641 2.0246 1.33594 1.16077 2.24414C1.01141 2.40234 0.8703 2.55078 0.731995 2.6875C-0.244385 3.66406 -0.243896 5.79492 0.733398 8.38477C1.80566 11.2285 3.92285 14.3203 6.69501 17.0938C8.83881 19.2363 11.1714 20.9688 13.4407 22.1328C15.422 23.1484 17.3438 23.6914 18.8521 23.6914C18.8523 23.6914 18.8524 23.6914 18.8527 23.6914C19.7966 23.6914 20.5633 23.4863 21.0697 23.0664C22.0983 22.2168 24.0128 20.6426 24 18.7715C23.993 17.7676 23.4431 16.8262 22.3652 15.959Z" fill="#FFFFFF" fill-opacity="1.000000" fill-rule="nonzero"/>
	</g>
</svg>
